<?xml version="1.0" standalone="no"?><!DOCTYPE svg PUBLIC "-//W3C//DTD SVG 1.1//EN" "http://www.w3.org/Graphics/SVG/1.1/DTD/svg11.dtd"><svg t="1556419798987" class="icon" style="" viewBox="0 0 1024 1024" version="1.1" xmlns="http://www.w3.org/2000/svg" p-id="1257" xmlns:xlink="http://www.w3.org/1999/xlink" width="200" height="200"><defs><style type="text/css"></style></defs><path d="M512 1024C229.6832 1024 0 794.3168 0 512S229.6832 0 512 0s512 229.6832 512 512-229.6832 512-512 512z m0-1013.76C235.3152 10.24 10.24 235.3152 10.24 512s225.0752 501.76 501.76 501.76 501.76-225.0752 501.76-501.76-225.0752-501.76-501.76-501.76z" p-id="1258"></path><path d="M196.608 693.7088c1.024-0.8704 106.9056-168.6528 138.7008-168.6528 31.1808 0 90.624 81.4592 90.624 81.4592 46.2336-48.896 148.5824-187.6992 178.7392-187.6992 31.1296 0 153.7536 171.8272 222.6688 274.8928H196.608zM386.2528 382.6688c0 28.9792-22.8352 52.3776-51.0976 52.3776-28.2624 0-51.0976-23.3984-51.0976-52.3776s22.8352-52.3776 51.0976-52.3776c28.2624 0 51.0976 23.4496 51.0976 52.3776z" p-id="1259"></path></svg>