<?xml version="1.0" standalone="no"?><!DOCTYPE svg PUBLIC "-//W3C//DTD SVG 1.1//EN" "http://www.w3.org/Graphics/SVG/1.1/DTD/svg11.dtd"><svg t="1556075786150" class="icon" style="" viewBox="0 0 1024 1024" version="1.1" xmlns="http://www.w3.org/2000/svg" p-id="2050" xmlns:xlink="http://www.w3.org/1999/xlink" width="200" height="200"><defs><style type="text/css"></style></defs><path d="M772.396 428.347H344.954V358.53c0-95.03 77.317-172.476 172.476-172.476s172.606 77.705 172.606 172.864c0 12.93 10.344 23.273 23.273 23.273s23.273-10.344 23.273-23.273c0-120.889-98.392-219.28-219.152-219.28-58.57 0-113.519 22.755-155.022 64.129-41.374 41.373-64.13 96.323-64.13 154.893v69.818h-49.13c-28.445-0.13-51.33 22.755-51.33 51.33v353.615c0 28.574 23.014 52.235 51.459 52.235h522.99c28.573 0 52.105-23.661 52.105-52.235V479.806c0.129-28.574-23.402-51.459-51.976-51.459z m5.56 405.592c0 2.845-2.328 5.172-5.172 5.172H249.535c-2.844 0-5.171-2.327-5.171-5.172V480.194c0-2.845 2.327-5.172 5.171-5.172h522.99c2.845 0 5.172 2.327 5.172 5.172l0.259 353.745z m0 0" p-id="2051"></path><path d="M506.958 549.107c-26.376 0-47.58 21.333-47.58 47.58 0 17.325 9.309 32.582 23.273 40.986v92.444c0 12.8 10.472 23.273 23.272 23.273s23.273-10.473 23.273-23.273v-91.28a47.457 47.457 0 0 0 25.47-42.15c-0.129-26.376-21.462-47.58-47.708-47.58z m0 0" p-id="2052"></path></svg>