<?xml version="1.0" standalone="no"?><!DOCTYPE svg PUBLIC "-//W3C//DTD SVG 1.1//EN" "http://www.w3.org/Graphics/SVG/1.1/DTD/svg11.dtd"><svg t="1556075802065" class="icon" style="" viewBox="0 0 1024 1024" version="1.1" xmlns="http://www.w3.org/2000/svg" p-id="2165" xmlns:xlink="http://www.w3.org/1999/xlink" width="200" height="200"><defs><style type="text/css"></style></defs><path d="M768 383.296h-62.976V285.76C705.024 163.52 604.16 64 480.32 64s-224.64 99.52-224.64 221.76v97.536H192c-70.656 0-128 57.344-128 128v320c0 70.656 57.344 128 128 128h576c70.656 0 128-57.344 128-128v-320c0-70.656-57.344-128-128-128zM319.872 285.76c0-87.296 72-158.4 160.448-158.4 88.512 0 160.512 71.04 160.512 158.4v97.536h-320.96V285.76zM832 831.296c0 35.392-28.608 64-64 64H192c-35.392 0-64-28.608-64-64v-320c0-35.392 28.608-64 64-64h576c35.392 0 64 28.608 64 64v320z m-352-320c-52.992 0-96 28.608-96 64 0 27.84 26.816 51.264 64 60.096v99.904c0 17.664 14.336 32 32 32s32-14.336 32-32v-99.904c37.184-8.832 64-32.256 64-60.096 0-35.328-43.008-64-96-64z" p-id="2166"></path></svg>