<?xml version="1.0" standalone="no"?><!DOCTYPE svg PUBLIC "-//W3C//DTD SVG 1.1//EN" "http://www.w3.org/Graphics/SVG/1.1/DTD/svg11.dtd"><svg t="1556075005889" class="icon" style="" viewBox="0 0 1024 1024" version="1.1" xmlns="http://www.w3.org/2000/svg" p-id="1188" xmlns:xlink="http://www.w3.org/1999/xlink" width="200" height="200"><defs><style type="text/css"></style></defs><path d="M861.184 386.048l-284.672-245.76c-13.312-13.312-29.696-21.504-48.128-24.576h-29.696c-19.456 3.072-36.864 12.288-51.2 25.6l-286.72 245.76c-13.312 14.336-23.552 35.84-26.624 58.368v21.504c1.024 7.168 2.048 13.312 5.12 19.456 7.168 16.384 26.624 43.008 76.8 44.032v262.144c0 47.104 54.272 114.688 104.448 114.688h102.4v-18.432h1.024V609.28c0-12.288 5.12-33.792 10.24-40.96h155.648c8.192 6.144 21.504 32.768 21.504 40.96v279.552h1.024v18.432h90.112c49.152 0 116.736-66.56 116.736-114.688V530.432c41.984-5.12 58.368-27.648 64.512-45.056 14.336-33.792 0-76.8-22.528-99.328z" p-id="1189"></path></svg>