<?xml version="1.0" standalone="no"?><!DOCTYPE svg PUBLIC "-//W3C//DTD SVG 1.1//EN" "http://www.w3.org/Graphics/SVG/1.1/DTD/svg11.dtd"><svg t="1556075758822" class="icon" style="" viewBox="0 0 1024 1024" version="1.1" xmlns="http://www.w3.org/2000/svg" p-id="1805" xmlns:xlink="http://www.w3.org/1999/xlink" width="200" height="200"><defs><style type="text/css"></style></defs><path d="M516.096 1017.856l-8.192-4.096c-163.84-59.392-296.96-178.176-374.784-335.872-77.824-153.6-92.16-329.728-40.96-495.616l4.096-18.432h18.432c141.312 0 274.432-45.056 385.024-133.12l16.384-12.288L532.48 30.72c108.544 88.064 241.664 133.12 382.976 133.12h18.432l6.144 18.432c51.2 165.888 36.864 342.016-40.96 497.664-77.824 155.648-210.944 274.432-374.784 335.872l-8.192 2.048zM135.168 215.04C49.152 526.336 215.04 851.968 516.096 966.656 817.152 851.968 983.04 526.336 897.024 215.04c-69.632-2.048-139.264-14.336-204.8-38.912-63.488-22.528-122.88-53.248-176.128-94.208-53.248 38.912-112.64 71.68-176.128 94.208-67.584 22.528-135.168 36.864-204.8 38.912z m0 0" p-id="1806"></path><path d="M468.992 702.464c-6.144 0-12.288-2.048-18.432-8.192L309.248 552.96c-10.24-10.24-10.24-26.624 0-34.816 10.24-10.24 26.624-10.24 34.816 0l124.928 124.928 266.24-266.24c10.24-10.24 26.624-10.24 34.816 0 10.24 10.24 10.24 26.624 0 34.816L487.424 696.32c-4.096 4.096-12.288 6.144-18.432 6.144z m0 0" p-id="1807"></path></svg>